solid ico
 facet normal -0.268035 -0.194739 0.943522
  outer loop
   vertex -2.102924 0.000000 3.402603
   vertex -1.236068 -2.000000 3.236068
   vertex 0.000000 0.000000 4.000000
  endloop
 endfacet
 facet normal 0.268035 -0.194739 0.943522
  outer loop
   vertex 0.000000 0.000000 4.000000
   vertex 1.236068 -2.000000 3.236068
   vertex 2.102924 0.000000 3.402603
  endloop
 endfacet
 facet normal 0.000000 -0.356822 0.934172
  outer loop
   vertex 1.236068 -2.000000 3.236068
   vertex 0.000000 0.000000 4.000000
   vertex -1.236068 -2.000000 3.236068
  endloop
 endfacet
 facet normal 0.000000 -0.628429 0.777867
  outer loop
   vertex -1.236068 -2.000000 3.236068
   vertex 0.000000 -3.402603 2.102924
   vertex 1.236068 -2.000000 3.236068
  endloop
 endfacet
 facet normal 0.583129 -0.315094 0.748784
  outer loop
   vertex 2.102924 0.000000 3.402603
   vertex 1.236068 -2.000000 3.236068
   vertex 3.236068 -1.236068 2.000000
  endloop
 endfacet
 facet normal 0.748784 -0.583129 0.315094
  outer loop
   vertex 3.236068 -1.236068 2.000000
   vertex 2.000000 -3.236068 1.236068
   vertex 3.402603 -2.102924 0.000000
  endloop
 endfacet
 facet normal 0.577350 -0.577350 0.577350
  outer loop
   vertex 2.000000 -3.236068 1.236068
   vertex 3.236068 -1.236068 2.000000
   vertex 1.236068 -2.000000 3.236068
  endloop
 endfacet
 facet normal 0.315094 -0.748784 0.583129
  outer loop
   vertex 1.236068 -2.000000 3.236068
   vertex 0.000000 -3.402603 2.102924
   vertex 2.000000 -3.236068 1.236068
  endloop
 endfacet
 facet normal 0.777867 0.000000 0.628429
  outer loop
   vertex 2.102924 0.000000 3.402603
   vertex 3.236068 -1.236068 2.000000
   vertex 3.236068 1.236068 2.000000
  endloop
 endfacet
 facet normal 0.943522 0.268035 0.194739
  outer loop
   vertex 3.236068 1.236068 2.000000
   vertex 4.000000 0.000000 0.000000
   vertex 3.402603 2.102924 0.000000
  endloop
 endfacet
 facet normal 0.934172 0.000000 0.356822
  outer loop
   vertex 4.000000 0.000000 0.000000
   vertex 3.236068 1.236068 2.000000
   vertex 3.236068 -1.236068 2.000000
  endloop
 endfacet
 facet normal 0.943522 -0.268035 0.194739
  outer loop
   vertex 3.236068 -1.236068 2.000000
   vertex 3.402603 -2.102924 0.000000
   vertex 4.000000 0.000000 0.000000
  endloop
 endfacet
 facet normal 0.583129 0.315094 0.748784
  outer loop
   vertex 2.102924 0.000000 3.402603
   vertex 3.236068 1.236068 2.000000
   vertex 1.236068 2.000000 3.236068
  endloop
 endfacet
 facet normal 0.315094 0.748784 0.583129
  outer loop
   vertex 1.236068 2.000000 3.236068
   vertex 2.000000 3.236068 1.236068
   vertex 0.000000 3.402603 2.102924
  endloop
 endfacet
 facet normal 0.577350 0.577350 0.577350
  outer loop
   vertex 2.000000 3.236068 1.236068
   vertex 1.236068 2.000000 3.236068
   vertex 3.236068 1.236068 2.000000
  endloop
 endfacet
 facet normal 0.748784 0.583129 0.315094
  outer loop
   vertex 3.236068 1.236068 2.000000
   vertex 3.402603 2.102924 0.000000
   vertex 2.000000 3.236068 1.236068
  endloop
 endfacet
 facet normal 0.268035 0.194739 0.943522
  outer loop
   vertex 2.102924 0.000000 3.402603
   vertex 1.236068 2.000000 3.236068
   vertex 0.000000 0.000000 4.000000
  endloop
 endfacet
 facet normal -0.268035 0.194739 0.943522
  outer loop
   vertex 0.000000 0.000000 4.000000
   vertex -1.236068 2.000000 3.236068
   vertex -2.102924 0.000000 3.402603
  endloop
 endfacet
 facet normal 0.000000 0.356822 0.934172
  outer loop
   vertex -1.236068 2.000000 3.236068
   vertex 0.000000 0.000000 4.000000
   vertex 1.236068 2.000000 3.236068
  endloop
 endfacet
 facet normal 0.000000 0.628429 0.777867
  outer loop
   vertex 1.236068 2.000000 3.236068
   vertex 0.000000 3.402603 2.102924
   vertex -1.236068 2.000000 3.236068
  endloop
 endfacet
 facet normal -0.315094 0.748784 0.583129
  outer loop
   vertex 0.000000 3.402603 2.102924
   vertex -2.000000 3.236068 1.236068
   vertex -1.236068 2.000000 3.236068
  endloop
 endfacet
 facet normal -0.583129 0.315094 0.748784
  outer loop
   vertex -1.236068 2.000000 3.236068
   vertex -3.236068 1.236068 2.000000
   vertex -2.102924 0.000000 3.402603
  endloop
 endfacet
 facet normal -0.577350 0.577350 0.577350
  outer loop
   vertex -3.236068 1.236068 2.000000
   vertex -1.236068 2.000000 3.236068
   vertex -2.000000 3.236068 1.236068
  endloop
 endfacet
 facet normal -0.748784 0.583129 0.315094
  outer loop
   vertex -2.000000 3.236068 1.236068
   vertex -3.402603 2.102924 0.000000
   vertex -3.236068 1.236068 2.000000
  endloop
 endfacet
 facet normal -0.943522 0.268035 0.194739
  outer loop
   vertex -3.402603 2.102924 0.000000
   vertex -4.000000 0.000000 0.000000
   vertex -3.236068 1.236068 2.000000
  endloop
 endfacet
 facet normal -0.777867 0.000000 0.628429
  outer loop
   vertex -3.236068 1.236068 2.000000
   vertex -3.236068 -1.236068 2.000000
   vertex -2.102924 0.000000 3.402603
  endloop
 endfacet
 facet normal -0.934172 0.000000 0.356822
  outer loop
   vertex -3.236068 -1.236068 2.000000
   vertex -3.236068 1.236068 2.000000
   vertex -4.000000 0.000000 0.000000
  endloop
 endfacet
 facet normal -0.943522 -0.268035 0.194739
  outer loop
   vertex -4.000000 0.000000 0.000000
   vertex -3.402603 -2.102924 0.000000
   vertex -3.236068 -1.236068 2.000000
  endloop
 endfacet
 facet normal -0.583129 -0.315094 0.748784
  outer loop
   vertex -2.102924 0.000000 3.402603
   vertex -3.236068 -1.236068 2.000000
   vertex -1.236068 -2.000000 3.236068
  endloop
 endfacet
 facet normal -0.315094 -0.748784 0.583129
  outer loop
   vertex -1.236068 -2.000000 3.236068
   vertex -2.000000 -3.236068 1.236068
   vertex 0.000000 -3.402603 2.102924
  endloop
 endfacet
 facet normal -0.577350 -0.577350 0.577350
  outer loop
   vertex -2.000000 -3.236068 1.236068
   vertex -1.236068 -2.000000 3.236068
   vertex -3.236068 -1.236068 2.000000
  endloop
 endfacet
 facet normal -0.748784 -0.583129 0.315094
  outer loop
   vertex -3.236068 -1.236068 2.000000
   vertex -3.402603 -2.102924 0.000000
   vertex -2.000000 -3.236068 1.236068
  endloop
 endfacet
 facet normal 0.268035 -0.194739 -0.943522
  outer loop
   vertex 2.102924 0.000000 -3.402603
   vertex 1.236068 -2.000000 -3.236068
   vertex 0.000000 0.000000 -4.000000
  endloop
 endfacet
 facet normal -0.268035 -0.194739 -0.943522
  outer loop
   vertex 0.000000 0.000000 -4.000000
   vertex -1.236068 -2.000000 -3.236068
   vertex -2.102924 0.000000 -3.402603
  endloop
 endfacet
 facet normal 0.000000 -0.356822 -0.934172
  outer loop
   vertex -1.236068 -2.000000 -3.236068
   vertex 0.000000 0.000000 -4.000000
   vertex 1.236068 -2.000000 -3.236068
  endloop
 endfacet
 facet normal 0.000000 -0.628429 -0.777867
  outer loop
   vertex 1.236068 -2.000000 -3.236068
   vertex 0.000000 -3.402603 -2.102924
   vertex -1.236068 -2.000000 -3.236068
  endloop
 endfacet
 facet normal 0.748784 -0.583129 -0.315094
  outer loop
   vertex 3.402603 -2.102924 0.000000
   vertex 2.000000 -3.236068 -1.236068
   vertex 3.236068 -1.236068 -2.000000
  endloop
 endfacet
 facet normal 0.583129 -0.315094 -0.748784
  outer loop
   vertex 3.236068 -1.236068 -2.000000
   vertex 1.236068 -2.000000 -3.236068
   vertex 2.102924 0.000000 -3.402603
  endloop
 endfacet
 facet normal 0.577350 -0.577350 -0.577350
  outer loop
   vertex 1.236068 -2.000000 -3.236068
   vertex 3.236068 -1.236068 -2.000000
   vertex 2.000000 -3.236068 -1.236068
  endloop
 endfacet
 facet normal 0.315094 -0.748784 -0.583129
  outer loop
   vertex 2.000000 -3.236068 -1.236068
   vertex 0.000000 -3.402603 -2.102924
   vertex 1.236068 -2.000000 -3.236068
  endloop
 endfacet
 facet normal 0.943522 -0.268035 -0.194739
  outer loop
   vertex 3.402603 -2.102924 0.000000
   vertex 3.236068 -1.236068 -2.000000
   vertex 4.000000 0.000000 0.000000
  endloop
 endfacet
 facet normal 0.943522 0.268035 -0.194739
  outer loop
   vertex 4.000000 0.000000 0.000000
   vertex 3.236068 1.236068 -2.000000
   vertex 3.402603 2.102924 0.000000
  endloop
 endfacet
 facet normal 0.934172 0.000000 -0.356822
  outer loop
   vertex 3.236068 1.236068 -2.000000
   vertex 4.000000 0.000000 0.000000
   vertex 3.236068 -1.236068 -2.000000
  endloop
 endfacet
 facet normal 0.777867 0.000000 -0.628429
  outer loop
   vertex 3.236068 -1.236068 -2.000000
   vertex 2.102924 0.000000 -3.402603
   vertex 3.236068 1.236068 -2.000000
  endloop
 endfacet
 facet normal 0.748784 0.583129 -0.315094
  outer loop
   vertex 3.402603 2.102924 0.000000
   vertex 3.236068 1.236068 -2.000000
   vertex 2.000000 3.236068 -1.236068
  endloop
 endfacet
 facet normal 0.315094 0.748784 -0.583129
  outer loop
   vertex 2.000000 3.236068 -1.236068
   vertex 1.236068 2.000000 -3.236068
   vertex 0.000000 3.402603 -2.102924
  endloop
 endfacet
 facet normal 0.577350 0.577350 -0.577350
  outer loop
   vertex 1.236068 2.000000 -3.236068
   vertex 2.000000 3.236068 -1.236068
   vertex 3.236068 1.236068 -2.000000
  endloop
 endfacet
 facet normal 0.583129 0.315094 -0.748784
  outer loop
   vertex 3.236068 1.236068 -2.000000
   vertex 2.102924 0.000000 -3.402603
   vertex 1.236068 2.000000 -3.236068
  endloop
 endfacet
 facet normal 0.000000 0.628429 -0.777867
  outer loop
   vertex 0.000000 3.402603 -2.102924
   vertex 1.236068 2.000000 -3.236068
   vertex -1.236068 2.000000 -3.236068
  endloop
 endfacet
 facet normal -0.268035 0.194739 -0.943522
  outer loop
   vertex -1.236068 2.000000 -3.236068
   vertex 0.000000 0.000000 -4.000000
   vertex -2.102924 0.000000 -3.402603
  endloop
 endfacet
 facet normal 0.000000 0.356822 -0.934172
  outer loop
   vertex 0.000000 0.000000 -4.000000
   vertex -1.236068 2.000000 -3.236068
   vertex 1.236068 2.000000 -3.236068
  endloop
 endfacet
 facet normal 0.268035 0.194739 -0.943522
  outer loop
   vertex 1.236068 2.000000 -3.236068
   vertex 2.102924 0.000000 -3.402603
   vertex 0.000000 0.000000 -4.000000
  endloop
 endfacet
 facet normal -0.315094 0.748784 -0.583129
  outer loop
   vertex 0.000000 3.402603 -2.102924
   vertex -1.236068 2.000000 -3.236068
   vertex -2.000000 3.236068 -1.236068
  endloop
 endfacet
 facet normal -0.748784 0.583129 -0.315094
  outer loop
   vertex -2.000000 3.236068 -1.236068
   vertex -3.236068 1.236068 -2.000000
   vertex -3.402603 2.102924 0.000000
  endloop
 endfacet
 facet normal -0.577350 0.577350 -0.577350
  outer loop
   vertex -3.236068 1.236068 -2.000000
   vertex -2.000000 3.236068 -1.236068
   vertex -1.236068 2.000000 -3.236068
  endloop
 endfacet
 facet normal -0.583129 0.315094 -0.748784
  outer loop
   vertex -1.236068 2.000000 -3.236068
   vertex -2.102924 0.000000 -3.402603
   vertex -3.236068 1.236068 -2.000000
  endloop
 endfacet
 facet normal -0.943522 0.268035 -0.194739
  outer loop
   vertex -3.402603 2.102924 0.000000
   vertex -3.236068 1.236068 -2.000000
   vertex -4.000000 0.000000 0.000000
  endloop
 endfacet
 facet normal -0.943522 -0.268035 -0.194739
  outer loop
   vertex -4.000000 0.000000 0.000000
   vertex -3.236068 -1.236068 -2.000000
   vertex -3.402603 -2.102924 0.000000
  endloop
 endfacet
 facet normal -0.934172 0.000000 -0.356822
  outer loop
   vertex -3.236068 -1.236068 -2.000000
   vertex -4.000000 0.000000 0.000000
   vertex -3.236068 1.236068 -2.000000
  endloop
 endfacet
 facet normal -0.777867 0.000000 -0.628429
  outer loop
   vertex -3.236068 1.236068 -2.000000
   vertex -2.102924 0.000000 -3.402603
   vertex -3.236068 -1.236068 -2.000000
  endloop
 endfacet
 facet normal -0.748784 -0.583129 -0.315094
  outer loop
   vertex -3.402603 -2.102924 0.000000
   vertex -3.236068 -1.236068 -2.000000
   vertex -2.000000 -3.236068 -1.236068
  endloop
 endfacet
 facet normal -0.315094 -0.748784 -0.583129
  outer loop
   vertex -2.000000 -3.236068 -1.236068
   vertex -1.236068 -2.000000 -3.236068
   vertex 0.000000 -3.402603 -2.102924
  endloop
 endfacet
 facet normal -0.577350 -0.577350 -0.577350
  outer loop
   vertex -1.236068 -2.000000 -3.236068
   vertex -2.000000 -3.236068 -1.236068
   vertex -3.236068 -1.236068 -2.000000
  endloop
 endfacet
 facet normal -0.583129 -0.315094 -0.748784
  outer loop
   vertex -3.236068 -1.236068 -2.000000
   vertex -2.102924 0.000000 -3.402603
   vertex -1.236068 -2.000000 -3.236068
  endloop
 endfacet
 facet normal -0.194739 -0.943522 -0.268035
  outer loop
   vertex 0.000000 -3.402603 -2.102924
   vertex 0.000000 -4.000000 0.000000
   vertex -2.000000 -3.236068 -1.236068
  endloop
 endfacet
 facet normal -0.628429 -0.777867 0.000000
  outer loop
   vertex -2.000000 -3.236068 -1.236068
   vertex -2.000000 -3.236068 1.236068
   vertex -3.402603 -2.102924 0.000000
  endloop
 endfacet
 facet normal -0.356822 -0.934172 0.000000
  outer loop
   vertex -2.000000 -3.236068 1.236068
   vertex -2.000000 -3.236068 -1.236068
   vertex 0.000000 -4.000000 0.000000
  endloop
 endfacet
 facet normal -0.194739 -0.943522 0.268035
  outer loop
   vertex 0.000000 -4.000000 0.000000
   vertex 0.000000 -3.402603 2.102924
   vertex -2.000000 -3.236068 1.236068
  endloop
 endfacet
 facet normal 0.628429 -0.777867 0.000000
  outer loop
   vertex 3.402603 -2.102924 0.000000
   vertex 2.000000 -3.236068 1.236068
   vertex 2.000000 -3.236068 -1.236068
  endloop
 endfacet
 facet normal 0.194739 -0.943522 -0.268035
  outer loop
   vertex 2.000000 -3.236068 -1.236068
   vertex 0.000000 -4.000000 0.000000
   vertex 0.000000 -3.402603 -2.102924
  endloop
 endfacet
 facet normal 0.356822 -0.934172 0.000000
  outer loop
   vertex 0.000000 -4.000000 0.000000
   vertex 2.000000 -3.236068 -1.236068
   vertex 2.000000 -3.236068 1.236068
  endloop
 endfacet
 facet normal 0.194739 -0.943522 0.268035
  outer loop
   vertex 2.000000 -3.236068 1.236068
   vertex 0.000000 -3.402603 2.102924
   vertex 0.000000 -4.000000 0.000000
  endloop
 endfacet
 facet normal 0.194739 0.943522 0.268035
  outer loop
   vertex 0.000000 3.402603 2.102924
   vertex 2.000000 3.236068 1.236068
   vertex 0.000000 4.000000 0.000000
  endloop
 endfacet
 facet normal 0.194739 0.943522 -0.268035
  outer loop
   vertex 0.000000 4.000000 0.000000
   vertex 2.000000 3.236068 -1.236068
   vertex 0.000000 3.402603 -2.102924
  endloop
 endfacet
 facet normal 0.356822 0.934172 0.000000
  outer loop
   vertex 2.000000 3.236068 -1.236068
   vertex 0.000000 4.000000 0.000000
   vertex 2.000000 3.236068 1.236068
  endloop
 endfacet
 facet normal 0.628429 0.777867 0.000000
  outer loop
   vertex 2.000000 3.236068 1.236068
   vertex 3.402603 2.102924 0.000000
   vertex 2.000000 3.236068 -1.236068
  endloop
 endfacet
 facet normal -0.194739 0.943522 0.268035
  outer loop
   vertex 0.000000 3.402603 2.102924
   vertex 0.000000 4.000000 0.000000
   vertex -2.000000 3.236068 1.236068
  endloop
 endfacet
 facet normal -0.628429 0.777867 0.000000
  outer loop
   vertex -2.000000 3.236068 1.236068
   vertex -2.000000 3.236068 -1.236068
   vertex -3.402603 2.102924 0.000000
  endloop
 endfacet
 facet normal -0.356822 0.934172 0.000000
  outer loop
   vertex -2.000000 3.236068 -1.236068
   vertex -2.000000 3.236068 1.236068
   vertex 0.000000 4.000000 0.000000
  endloop
 endfacet
 facet normal -0.194739 0.943522 -0.268035
  outer loop
   vertex 0.000000 4.000000 0.000000
   vertex 0.000000 3.402603 -2.102924
   vertex -2.000000 3.236068 -1.236068
  endloop
 endfacet
endsolid ico
